# xmcd
# 
# Track frame offsets:
#     150
#     19365
#     34672
#     50085
#     62200
#     76747
#     87592
#     102570
#     114910
#     131227
#     144925
#     156027
#     169232
#     187005
#     201420
#     214185
#     228602
# 
# Disc length: 3202
# 
# Revision: 2
# Processed by: cddbd v1.5.2PL0 Copyright (c) Steve Scherf et al.
# Submitted via: fre:ac v1.0.31
# 
DISCID=fb0c8011
DTITLE=Vicente Fernández - La Historia De Un Idolo
DYEAR=2007
DGENRE=Ranchero
TTITLE0=Lástima Que Seas Ajena
TTITLE1=La Ley Del Monte
TTITLE2=Aunque Mal Paguen Ellas Ft. Roberto Carlos
TTITLE3=El Hijo Del Pueblo
TTITLE4=Aca Entre Nos
TTITLE5=Ni En Defensa Propia
TTITLE6=Qué De Raro Tiene
TTITLE7=Me Voy A Quitar De En Medio
TTITLE8=Hoy Platiqué Con Mi Gallo
TTITLE9=Nos Estorbó La Ropa
TTITLE10=Palabra De Rey
TTITLE11=Las Llaves De Mi Alma
TTITLE12=Por Tu Maldito Amor
TTITLE13=Mi Viejo
TTITLE14=La Diferencia
TTITLE15=Mujeres Divinas
TTITLE16=Hermoso Cariño
EXTD=
EXTT0=
EXTT1=
EXTT2=
EXTT3=
EXTT4=
EXTT5=
EXTT6=
EXTT7=
EXTT8=
EXTT9=
EXTT10=
EXTT11=
EXTT12=
EXTT13=
EXTT14=
EXTT15=
EXTT16=
PLAYORDER=
